<svg xmlns="http://www.w3.org/2000/svg" xmlns:xlink="http://www.w3.org/1999/xlink" width="237" zoomAndPan="magnify" viewBox="0 0 177.75 114.749999" height="153" preserveAspectRatio="xMidYMid meet" version="1.0"><defs><clipPath id="57beea7a90"><path d="M 114 25 L 177 25 L 177 89 L 114 89 Z M 114 25 " clip-rule="nonzero"/></clipPath><clipPath id="34cbf083d7"><path d="M 114.511719 56.976562 L 145.597656 25.886719 L 176.683594 56.976562 L 145.597656 88.0625 Z M 114.511719 56.976562 " clip-rule="nonzero"/></clipPath><clipPath id="4011847e0b"><path d="M 114.511719 56.976562 L 145.597656 25.886719 L 176.683594 56.976562 L 145.597656 88.0625 Z M 114.511719 56.976562 " clip-rule="nonzero"/></clipPath><clipPath id="8a477ea934"><path d="M 0.0703125 25 L 63 25 L 63 89 L 0.0703125 89 Z M 0.0703125 25 " clip-rule="nonzero"/></clipPath><clipPath id="388857e4b1"><path d="M 0.648438 56.976562 L 31.734375 25.886719 L 62.820312 56.976562 L 31.734375 88.0625 Z M 0.648438 56.976562 " clip-rule="nonzero"/></clipPath><clipPath id="44777cd8f5"><path d="M 0.648438 56.976562 L 31.734375 25.886719 L 62.820312 56.976562 L 31.734375 88.0625 Z M 0.648438 56.976562 " clip-rule="nonzero"/></clipPath><clipPath id="387ae10b23"><path d="M 31 0 L 146 0 L 146 114 L 31 114 Z M 31 0 " clip-rule="nonzero"/></clipPath><clipPath id="505603453e"><path d="M 31.734375 56.976562 L 88.667969 0.0429688 L 145.597656 56.976562 L 88.667969 113.90625 Z M 31.734375 56.976562 " clip-rule="nonzero"/></clipPath><clipPath id="2a0e806531"><path d="M 31.734375 56.976562 L 88.667969 0.0429688 L 145.597656 56.976562 L 88.667969 113.90625 Z M 31.734375 56.976562 " clip-rule="nonzero"/></clipPath><clipPath id="8886aece50"><path d="M 71.414062 26.988281 L 105.835938 26.988281 L 105.835938 88.355469 L 71.414062 88.355469 Z M 71.414062 26.988281 " clip-rule="nonzero"/></clipPath></defs><g clip-path="url(#57beea7a90)"><g clip-path="url(#34cbf083d7)"><g clip-path="url(#4011847e0b)"><path fill="#ff6d00" d="M 114.511719 56.976562 L 145.597656 25.886719 L 176.683594 56.976562 L 145.597656 88.0625 Z M 114.511719 56.976562 " fill-opacity="1" fill-rule="nonzero"/></g></g></g><g clip-path="url(#8a477ea934)"><g clip-path="url(#388857e4b1)"><g clip-path="url(#44777cd8f5)"><path fill="#ff6d00" d="M 0.648438 56.976562 L 31.734375 25.886719 L 62.820312 56.976562 L 31.734375 88.0625 Z M 0.648438 56.976562 " fill-opacity="1" fill-rule="nonzero"/></g></g></g><g clip-path="url(#387ae10b23)"><g clip-path="url(#505603453e)"><g clip-path="url(#2a0e806531)"><path fill="#ff4800" d="M 31.734375 56.976562 L 88.667969 0.0429688 L 145.597656 56.976562 L 88.667969 113.90625 Z M 31.734375 56.976562 " fill-opacity="1" fill-rule="nonzero"/></g></g></g><g clip-path="url(#8886aece50)"><path fill="#ffffff" d="M 105.832031 26.988281 L 72.089844 61.425781 L 86.757812 61.425781 L 71.457031 88.0625 L 105.890625 54.101562 L 90.574219 54.101562 L 105.832031 26.988281 " fill-opacity="1" fill-rule="nonzero"/><path fill="#ffffff" d="M 102.941406 54.101562 L 75.3125 81.347656 L 71.457031 88.0625 L 105.890625 54.101562 Z M 105.832031 26.992188 L 98.898438 34.066406 L 87.625 54.101562 L 90.574219 54.101562 L 105.832031 26.992188 " fill-opacity="1" fill-rule="nonzero"/></g></svg>